# File created by Blade
# Date/Time:  Wed Jan 28 16:58:26 2015
#---------------------------------------------------------
:version 1.10
:name HOM
:units
  mass 1.0
  length 1.000000
  angle deg
:documentation
     Acclaim Skeleton File
:root
   axis xyz
   order TX TY TZ RX RY RZ
   position 0.000000 0.000000 0.000000
   orientation 0 0 0
:bonedata
   begin
      id 1
      name Spine_dum
      direction 0.000000 1.000000 0.000000
      length 9.621153
      axis 0.0 0.0 0.0 xyz
   end
   begin
      id 2
      name LeftUpLeg_dum
      direction 1.000000 0.000000 0.000000
      length 2.700595
      axis 0.0 0.0 0.0 xyz
   end
   begin
      id 3
      name RightUpLeg_dum
      direction -1.000000 0.000000 0.000000
      length 2.700595
      axis 0.0 0.0 0.0 xyz
   end
   begin
      id 4
      name Spine
      direction 0.000000 1.000000 0.000000
      length 0.000000
      axis 0.0 0.0 0.0 xyz
      dof rx ry rz
   end
   begin
      id 5
      name Spine_dum1
      direction 0.000000 1.000000 0.000000
      length 12.771951
      axis 0.0 0.0 0.0 xyz
   end
   begin
      id 6
      name Spine_dum2
      direction 0.000000 1.000000 0.000000
      length 7.400569
      axis 0.0 0.0 0.0 xyz
   end
   begin
      id 7
      name Spine_dum3
      direction 0.000000 1.000000 0.000000
      length 7.400569
      axis 0.0 0.0 0.0 xyz
   end
   begin
      id 8
      name Head
      direction 0.000000 1.000000 0.000000
      length 4.527550
      axis 0.0 0.0 0.0 xyz
      dof rx ry rz
   end
   begin
      id 9
      name LeftShoulder
      direction 1.000000 0.000000 0.000000
      length 8.349299
      axis 0.0 0.0 -90.0 xyz
      dof rx ry rz
   end
   begin
      id 10
      name LeftArm
      direction 1.000000 0.000000 0.000000
      length 11.334839
      axis 0.0 0.0 -90.0 xyz
      dof rx ry rz
   end
   begin
      id 11
      name LeftForeArm
      direction 1.000000 0.000000 0.000000
      length 9.694182
      axis 0.0 0.0 -90.0 xyz
      dof ry rz rx
   end
   begin
      id 12
      name LeftHand
      direction 0.000000 0.000000 0.000000
      length 0.000000
      axis 0.0 0.0 -90.0 xyz
      dof rx ry rz
   end
   begin
      id 13
      name LeftHand_dum1
      direction 0.000000 0.000000 0.000000
      length 0.000000
      axis 0.0 0.0 -90.0 xyz
   end
   begin
      id 14
      name LeftHand_dum2
      direction 1.000000 0.000000 0.000000
      length 3.937000
      axis 0.0 0.0 -90.0 xyz
   end
   begin
      id 15
      name LeftHandThumb1
      direction 0.000000 0.000000 1.000000
      length 3.937000
      axis 0.0 0.0 -90.0 xyz
      dof rx rz ry
   end
   begin
      id 16
      name RightShoulder
      direction -1.000000 0.000000 0.000000
      length 8.349299
      axis 0.0 0.0 90.0 xyz
      dof rx ry rz
   end
   begin
      id 17
      name RightArm
      direction -1.000000 0.000000 0.000000
      length 11.334839
      axis 0.0 0.0 90.0 xyz
      dof rx ry rz
   end
   begin
      id 18
      name RightForeArm
      direction -1.000000 0.000000 0.000000
      length 9.694182
      axis 0.0 0.0 90.0 xyz
      dof ry rz rx
   end
   begin
      id 19
      name RightHand
      direction 0.000000 0.000000 0.000000
      length 0.000000
      axis 0.0 0.0 90.0 xyz
      dof rx ry rz
   end
   begin
      id 20
      name RightHand_dum1
      direction 0.000000 0.000000 0.000000
      length 0.000000
      axis 0.0 0.0 90.0 xyz
   end
   begin
      id 21
      name RightHand_dum2
      direction -1.000000 0.000000 0.000000
      length 3.937000
      axis 0.0 0.0 90.0 xyz
   end
   begin
      id 22
      name RightHandThumb1
      direction 0.000000 0.000000 1.000000
      length 3.937000
      axis 0.0 0.0 90.0 xyz
      dof rx rz ry
   end
   begin
      id 23
      name LeftUpLeg
      direction 0.000000 -1.000000 0.000000
      length 16.757176
      axis 0.0 0.0 0.0 xyz
      dof rx ry rz
   end
   begin
      id 24
      name LeftLeg
      direction 0.000000 -1.000000 0.000000
      length 16.759153
      axis 0.0 0.0 0.0 xyz
      dof rx ry rz
   end
   begin
      id 25
      name LeftFoot
      direction 0.000000 -0.258819 0.965926
      length 5.841289
      axis 15.0 0.0 0.0 xyz
      dof rx ry rz
   end
   begin
      id 26
      name LeftToeBase
      direction 0.000000 0.000000 1.000000
      length 2.952750
      axis 0.0 0.0 0.0 xyz
      dof rx ry rz
   end
   begin
      id 27
      name RightUpLeg
      direction 0.000000 -1.000000 0.000000
      length 16.757176
      axis 0.0 0.0 0.0 xyz
      dof rx ry rz
   end
   begin
      id 28
      name RightLeg
      direction 0.000000 -1.000000 0.000000
      length 16.759153
      axis 0.0 0.0 0.0 xyz
      dof rx ry rz
   end
   begin
      id 29
      name RightFoot
      direction 0.000000 -0.258819 0.965926
      length 5.841289
      axis 15.0 0.0 0.0 xyz
      dof rx ry rz
   end
   begin
      id 30
      name RightToeBase
      direction 0.000000 0.000000 1.000000
      length 2.952750
      axis 0.0 0.0 0.0 xyz
      dof rx ry rz
   end
:hierarchy
   begin
      root Spine_dum LeftUpLeg_dum RightUpLeg_dum
      Spine_dum Spine
      LeftUpLeg_dum LeftUpLeg
      RightUpLeg_dum RightUpLeg
      Spine Spine_dum1 Spine_dum2 Spine_dum3
      Spine_dum1 Head
      Spine_dum2 LeftShoulder
      Spine_dum3 RightShoulder
      LeftShoulder LeftArm
      LeftArm LeftForeArm
      LeftForeArm LeftHand
      LeftHand LeftHand_dum1 LeftHand_dum2
      LeftHand_dum1 LeftHandThumb1
      RightShoulder RightArm
      RightArm RightForeArm
      RightForeArm RightHand
      RightHand RightHand_dum1 RightHand_dum2
      RightHand_dum1 RightHandThumb1
      LeftUpLeg LeftLeg
      LeftLeg LeftFoot
      LeftFoot LeftToeBase
      RightUpLeg RightLeg
      RightLeg RightFoot
      RightFoot RightToeBase
   end

# File created by Blade
# Date/Time:  Wed Jan 28 16:58:32 2015
# Frame Rate: 120.000 fps
#------------------------------------------------------
:FULLY-SPECIFIED
:DEGREES
1744
root 10.205209 36.413142 -17.854131 206.575987 22.576975 -159.424466
Spine 19.981319 2.541743 4.843689
Head 28.454472 10.416832 33.860660
LeftShoulder -10.023615 3.207818 27.444427
LeftArm 37.992601 -49.531994 -76.940328
LeftForeArm -23.850339 0.000000 114.299826
LeftHand -12.896779 -0.000000 38.348585
LeftHandThumb1 -26.253704 0.000000 33.147579
RightShoulder -22.519539 -9.425127 -2.578162
RightArm 10.866628 -19.168124 69.690982
RightForeArm -7.410552 0.000000 26.939141
RightHand -16.787246 0.000000 -0.175472
RightHandThumb1 -24.326973 -0.000000 -32.862282
LeftUpLeg -25.005257 25.437064 3.520160
LeftLeg 10.791660 -0.000000 -0.000000
LeftFoot -17.343979 14.662024 -10.561502
LeftToeBase 17.237443 -0.000000 -0.000000
RightUpLeg -7.134103 8.588769 10.021335
RightLeg 91.207185 -0.000000 -0.000000
RightFoot 4.776932 -18.454713 20.580037
RightToeBase -4.092568 -0.000000 0.000000
1745
root 10.190490 36.411249 -17.848145 206.511338 22.655859 -159.486160
Spine 19.929099 2.496031 4.768382
Head 28.694031 10.432737 33.724761
LeftShoulder -10.031696 3.155133 27.400765
LeftArm 37.915483 -49.517915 -77.014252
LeftForeArm -23.486035 -0.000000 114.398036
LeftHand -13.100531 -0.000000 38.423731
LeftHandThumb1 -26.253704 0.000000 33.147579
RightShoulder -22.448515 -9.431528 -2.639776
RightArm 10.857821 -18.955004 69.677899
RightForeArm -7.402110 -0.000000 26.756483
RightHand -16.648550 0.000000 -0.343381
RightHandThumb1 -24.326973 -0.000000 -32.862282
LeftUpLeg -24.924456 25.457614 3.452201
LeftLeg 10.703623 -0.000000 -0.000000
LeftFoot -17.504099 14.611112 -10.910494
LeftToeBase 17.541025 -0.000000 -0.000000
RightUpLeg -7.682776 8.750134 10.060403
RightLeg 91.703494 -0.000000 -0.000000
RightFoot 4.392560 -18.490067 20.531480
RightToeBase -3.919565 -0.000000 0.000000
1746
root 10.179701 36.408980 -17.844523 206.443684 22.716584 -159.537659
Spine 19.889401 2.433618 4.706766
Head 28.918783 10.519529 33.608922
LeftShoulder -10.059602 3.190086 27.342078
LeftArm 37.868294 -49.496301 -77.098714
LeftForeArm -23.252448 -0.000000 114.504272
LeftHand -13.207426 -0.000000 38.194669
LeftHandThumb1 -26.253704 0.000000 33.147579
RightShoulder -22.372973 -9.404155 -2.708895
RightArm 10.806309 -18.798734 69.677148
RightForeArm -7.356724 0.000000 26.647259
RightHand -16.778400 -0.000000 -0.620426
RightHandThumb1 -24.326973 -0.000000 -32.862282
LeftUpLeg -24.882110 25.524529 3.390023
LeftLeg 10.710393 -0.000000 -0.000000
LeftFoot -17.627041 14.497075 -11.173046
LeftToeBase 17.732535 -0.000000 -0.000000
RightUpLeg -8.180592 8.843061 10.097103
RightLeg 92.187672 -0.000000 -0.000000
RightFoot 4.102964 -18.512071 20.488733
RightToeBase -3.944166 -0.000000 0.000000
1747
root 10.175008 36.409685 -17.841609 206.382193 22.762345 -159.552383
Spine 19.862573 2.448080 4.657071
Head 29.063730 10.558052 33.614582
LeftShoulder -10.038296 3.220005 27.360602
LeftArm 37.782866 -49.460634 -77.217824
LeftForeArm -23.295696 -0.000000 114.574125
LeftHand -13.065969 -0.000000 38.047880
LeftHandThumb1 -26.253704 0.000000 33.147579
RightShoulder -22.358070 -9.407209 -2.674446
RightArm 10.809094 -18.561666 69.599666
RightForeArm -7.428814 -0.000000 26.541828
RightHand -16.640871 0.000000 -0.493297
RightHandThumb1 -24.326973 -0.000000 -32.862282
LeftUpLeg -24.882981 25.681172 3.345810
LeftLeg 10.785764 -0.000000 -0.000000
LeftFoot -17.786099 14.313504 -11.486493
LeftToeBase 17.907629 -0.000000 -0.000000
RightUpLeg -8.600579 8.860589 10.183706
RightLeg 92.641846 -0.000000 -0.000000
RightFoot 3.794794 -18.552852 20.313736
RightToeBase -3.842422 -0.000000 0.000000
1748
root 10.169589 36.409743 -17.837397 206.306610 22.771339 -159.575814
Spine 19.855543 2.415571 4.616127
Head 29.178215 10.538292 33.571010
LeftShoulder -10.026471 3.239682 27.352535
LeftArm 37.718609 -49.424086 -77.292783
LeftForeArm -23.387005 -0.000000 114.661153
LeftHand -13.041949 -0.000000 37.732765
LeftHandThumb1 -26.253704 0.000000 33.147579
RightShoulder -22.328458 -9.433597 -2.644689
RightArm 10.858080 -18.287169 69.536600
RightForeArm -7.229742 0.000000 26.425383
RightHand -16.638410 -0.000000 -0.393117
RightHandThumb1 -24.326973 -0.000000 -32.862282
LeftUpLeg -24.927902 25.863147 3.283404
LeftLeg 10.926426 -0.000000 -0.000000
LeftFoot -17.888103 14.113232 -11.671148
LeftToeBase 18.014715 -0.000000 -0.000000
RightUpLeg -8.962612 8.808327 10.261892
RightLeg 93.080097 -0.000000 -0.000000
RightFoot 3.581164 -18.577213 20.070094
RightToeBase -3.875324 -0.000000 0.000000
